<svg xmlns="http://www.w3.org/2000/svg" width="24" height="24" viewBox="0 0 48 48" aria-hidden="true">
  <defs>
    <clipPath id="a">
      <path d="M0 0h48v48H0z"/>
    </clipPath>
  </defs>
  <g clip-path="url(#a)">
    <path fill="#FFC107" d="M43.611 20.083H42V20H24v8h11.303C33.826 31.658 29.345 35 24 35 16.82 35 11 29.18 11 22S16.82 9 24 9c3.183 0 6.106 1.131 8.382 3.002l5.657-5.657C34.955 3.165 29.741 1 24 1 11.85 1 2 10.85 2 23s9.85 22 22 22c12.15 0 22-9.85 22-22 0-1.467-.153-2.9-.389-4.917z"/>
    <path fill="#FF3D00" d="M6.306 14.691l6.571 4.819C14.39 16.027 18.83 13 24 13c3.183 0 6.106 1.131 8.382 3.002l5.657-5.657C34.955 3.165 29.741 1 24 1 16.174 1 9.36 5.244 6.306 14.691z"/>
    <path fill="#4CAF50" d="M24 45c5.29 0 10.127-1.975 13.79-5.197l-6.364-5.384C29.303 35.658 25.345 37 24 37c-5.318 0-9.787-3.319-11.273-7.922l-6.5 5.008C8.237 41.93 15.533 45 24 45z"/>
    <path fill="#1976D2" d="M43.611 20.083H42V20H24v8h11.303c-1.098 3.343-4.263 5.79-7.877 6.419l6.364 5.384C35.073 41.463 41 37 41 27c0-2.397-.52-4.66-1.389-6.917z"/>
  </g>
</svg>


